<svg width="243" height="43" viewBox="0 0 243 43" fill="none" xmlns="http://www.w3.org/2000/svg">
<path d="M44.135 3.39V42H34.73V18.845L26.095 42H18.505L9.815 18.79V42H0.41V3.39H11.52L22.355 30.12L33.08 3.39H44.135ZM79.8283 26.16C79.8283 27.04 79.7733 27.9567 79.6633 28.91H58.3783C58.5249 30.8167 59.1299 32.2833 60.1933 33.31C61.2933 34.3 62.6316 34.795 64.2083 34.795C66.5549 34.795 68.1866 33.805 69.1033 31.825H79.1133C78.6 33.8417 77.665 35.6567 76.3083 37.27C74.9883 38.8833 73.3199 40.1483 71.3033 41.065C69.2866 41.9817 67.0316 42.44 64.5383 42.44C61.5316 42.44 58.8549 41.7983 56.5083 40.515C54.1616 39.2317 52.3283 37.3983 51.0083 35.015C49.6883 32.6317 49.0283 29.845 49.0283 26.655C49.0283 23.465 49.6699 20.6783 50.9533 18.295C52.2733 15.9117 54.1066 14.0783 56.4533 12.795C58.7999 11.5117 61.4949 10.87 64.5383 10.87C67.5083 10.87 70.1483 11.4933 72.4583 12.74C74.7683 13.9867 76.5649 15.765 77.8483 18.075C79.1683 20.385 79.8283 23.08 79.8283 26.16ZM70.2033 23.685C70.2033 22.0717 69.6533 20.7883 68.5533 19.835C67.4533 18.8817 66.0783 18.405 64.4283 18.405C62.8516 18.405 61.5133 18.8633 60.4133 19.78C59.3499 20.6967 58.6899 21.9983 58.4333 23.685H70.2033ZM103.49 10.98C107.083 10.98 109.943 12.1533 112.07 14.5C114.233 16.81 115.315 20 115.315 24.07V42H105.965V25.335C105.965 23.2817 105.433 21.6867 104.37 20.55C103.307 19.4133 101.877 18.845 100.08 18.845C98.2832 18.845 96.8532 19.4133 95.7899 20.55C94.7266 21.6867 94.1949 23.2817 94.1949 25.335V42H84.7899V11.31H94.1949V15.38C95.1482 14.0233 96.4315 12.96 98.0449 12.19C99.6582 11.3833 101.473 10.98 103.49 10.98ZM138.955 34.025V42H134.17C130.76 42 128.102 41.175 126.195 39.525C124.289 37.8383 123.335 35.1067 123.335 31.33V19.12H119.595V11.31H123.335V3.83H132.74V11.31H138.9V19.12H132.74V31.44C132.74 32.3567 132.96 33.0167 133.4 33.42C133.84 33.8233 134.574 34.025 135.6 34.025H138.955ZM173.124 26.16C173.124 27.04 173.069 27.9567 172.959 28.91H151.674C151.821 30.8167 152.426 32.2833 153.489 33.31C154.589 34.3 155.928 34.795 157.504 34.795C159.851 34.795 161.483 33.805 162.399 31.825H172.409C171.896 33.8417 170.961 35.6567 169.604 37.27C168.284 38.8833 166.616 40.1483 164.599 41.065C162.583 41.9817 160.328 42.44 157.834 42.44C154.828 42.44 152.151 41.7983 149.804 40.515C147.458 39.2317 145.624 37.3983 144.304 35.015C142.984 32.6317 142.324 29.845 142.324 26.655C142.324 23.465 142.966 20.6783 144.249 18.295C145.569 15.9117 147.403 14.0783 149.749 12.795C152.096 11.5117 154.791 10.87 157.834 10.87C160.804 10.87 163.444 11.4933 165.754 12.74C168.064 13.9867 169.861 15.765 171.144 18.075C172.464 20.385 173.124 23.08 173.124 26.16ZM163.499 23.685C163.499 22.0717 162.949 20.7883 161.849 19.835C160.749 18.8817 159.374 18.405 157.724 18.405C156.148 18.405 154.809 18.8633 153.709 19.78C152.646 20.6967 151.986 21.9983 151.729 23.685H163.499Z" fill="white"/>
<path d="M192.056 42.385C189.232 42.385 186.702 41.9267 184.466 41.01C182.229 40.0933 180.432 38.7367 179.076 36.94C177.756 35.1433 177.059 32.98 176.986 30.45H186.996C187.142 31.88 187.637 32.98 188.481 33.75C189.324 34.4833 190.424 34.85 191.781 34.85C193.174 34.85 194.274 34.5383 195.081 33.915C195.887 33.255 196.291 32.3567 196.291 31.22C196.291 30.2667 195.961 29.4783 195.301 28.855C194.677 28.2317 193.889 27.7183 192.936 27.315C192.019 26.9117 190.699 26.4533 188.976 25.94C186.482 25.17 184.447 24.4 182.871 23.63C181.294 22.86 179.937 21.7233 178.801 20.22C177.664 18.7167 177.096 16.755 177.096 14.335C177.096 10.7417 178.397 7.93667 181.001 5.92C183.604 3.86667 186.996 2.84 191.176 2.84C195.429 2.84 198.857 3.86667 201.461 5.92C204.064 7.93667 205.457 10.76 205.641 14.39H195.466C195.392 13.1433 194.934 12.1717 194.091 11.475C193.247 10.7417 192.166 10.375 190.846 10.375C189.709 10.375 188.792 10.6867 188.096 11.31C187.399 11.8967 187.051 12.7583 187.051 13.895C187.051 15.1417 187.637 16.1133 188.811 16.81C189.984 17.5067 191.817 18.2583 194.311 19.065C196.804 19.9083 198.821 20.715 200.361 21.485C201.937 22.255 203.294 23.3733 204.431 24.84C205.567 26.3067 206.136 28.195 206.136 30.505C206.136 32.705 205.567 34.7033 204.431 36.5C203.331 38.2967 201.717 39.7267 199.591 40.79C197.464 41.8533 194.952 42.385 192.056 42.385ZM210.054 26.6C210.054 23.4467 210.64 20.6783 211.814 18.295C213.024 15.9117 214.655 14.0783 216.709 12.795C218.762 11.5117 221.054 10.87 223.584 10.87C225.747 10.87 227.635 11.31 229.249 12.19C230.899 13.07 232.164 14.225 233.044 15.655V11.31H242.449V42H233.044V37.655C232.127 39.085 230.844 40.24 229.194 41.12C227.58 42 225.692 42.44 223.529 42.44C221.035 42.44 218.762 41.7983 216.709 40.515C214.655 39.195 213.024 37.3433 211.814 34.96C210.64 32.54 210.054 29.7533 210.054 26.6ZM233.044 26.655C233.044 24.3083 232.384 22.4567 231.064 21.1C229.78 19.7433 228.204 19.065 226.334 19.065C224.464 19.065 222.869 19.7433 221.549 21.1C220.265 22.42 219.624 24.2533 219.624 26.6C219.624 28.9467 220.265 30.8167 221.549 32.21C222.869 33.5667 224.464 34.245 226.334 34.245C228.204 34.245 229.78 33.5667 231.064 32.21C232.384 30.8533 233.044 29.0017 233.044 26.655ZM216.379 8.725C217.259 3.29833 219.789 0.584999 223.969 0.584999C224.775 0.584999 225.472 0.713332 226.059 0.969997C226.682 1.19 227.434 1.53833 228.314 2.015C228.974 2.38167 229.505 2.65667 229.909 2.84C230.312 2.98667 230.734 3.06 231.174 3.06C232.53 3.06 233.319 2.235 233.539 0.584999H238.379C237.499 6.01167 234.969 8.725 230.789 8.725C229.982 8.725 229.267 8.615 228.644 8.395C228.057 8.13833 227.324 7.77166 226.444 7.295C225.784 6.92833 225.252 6.67166 224.849 6.525C224.445 6.34166 224.024 6.25 223.584 6.25C222.227 6.25 221.42 7.075 221.164 8.725H216.379Z" fill="#2E0069"/>
</svg>
