<svg width="274" height="48" viewBox="0 0 274 48" fill="none" xmlns="http://www.w3.org/2000/svg">
<path d="M50.134 3.476V47H39.532V20.898L29.798 47H21.242L11.446 20.836V47H0.844V3.476H13.368L25.582 33.608L37.672 3.476H50.134ZM90.3701 29.144C90.3701 30.136 90.3081 31.1693 90.1841 32.244H66.1901C66.3554 34.3933 67.0374 36.0467 68.2361 37.204C69.4761 38.32 70.9847 38.878 72.7621 38.878C75.4074 38.878 77.2467 37.762 78.2801 35.53H89.5641C88.9854 37.8033 87.9314 39.8493 86.4021 41.668C84.9141 43.4867 83.0334 44.9127 80.7601 45.946C78.4867 46.9793 75.9447 47.496 73.1341 47.496C69.7447 47.496 66.7274 46.7727 64.0821 45.326C61.4367 43.8793 59.3701 41.8127 57.8821 39.126C56.3941 36.4393 55.6501 33.298 55.6501 29.702C55.6501 26.106 56.3734 22.9647 57.8201 20.278C59.3081 17.5913 61.3747 15.5247 64.0201 14.078C66.6654 12.6313 69.7034 11.908 73.1341 11.908C76.4821 11.908 79.4581 12.6107 82.0621 14.016C84.6661 15.4213 86.6914 17.426 88.1381 20.03C89.6261 22.634 90.3701 25.672 90.3701 29.144ZM79.5201 26.354C79.5201 24.5353 78.9001 23.0887 77.6601 22.014C76.4201 20.9393 74.8701 20.402 73.0101 20.402C71.2327 20.402 69.7241 20.9187 68.4841 21.952C67.2854 22.9853 66.5414 24.4527 66.2521 26.354H79.5201ZM117.043 12.032C121.094 12.032 124.318 13.3547 126.715 16C129.154 18.604 130.373 22.2 130.373 26.788V47H119.833V28.214C119.833 25.8993 119.234 24.1013 118.035 22.82C116.836 21.5387 115.224 20.898 113.199 20.898C111.174 20.898 109.562 21.5387 108.363 22.82C107.164 24.1013 106.565 25.8993 106.565 28.214V47H95.9631V12.404H106.565V16.992C107.64 15.4627 109.086 14.264 110.905 13.396C112.724 12.4867 114.77 12.032 117.043 12.032ZM157.022 38.01V47H151.628C147.784 47 144.788 46.07 142.638 44.21C140.489 42.3087 139.414 39.2293 139.414 34.972V21.208H135.198V12.404H139.414V3.972H150.016V12.404H156.96V21.208H150.016V35.096C150.016 36.1293 150.264 36.8733 150.76 37.328C151.256 37.7827 152.083 38.01 153.24 38.01H157.022ZM195.54 29.144C195.54 30.136 195.478 31.1693 195.354 32.244H171.36C171.525 34.3933 172.207 36.0467 173.406 37.204C174.646 38.32 176.155 38.878 177.932 38.878C180.577 38.878 182.417 37.762 183.45 35.53H194.734C194.155 37.8033 193.101 39.8493 191.572 41.668C190.084 43.4867 188.203 44.9127 185.93 45.946C183.657 46.9793 181.115 47.496 178.304 47.496C174.915 47.496 171.897 46.7727 169.252 45.326C166.607 43.8793 164.54 41.8127 163.052 39.126C161.564 36.4393 160.82 33.298 160.82 29.702C160.82 26.106 161.543 22.9647 162.99 20.278C164.478 17.5913 166.545 15.5247 169.19 14.078C171.835 12.6313 174.873 11.908 178.304 11.908C181.652 11.908 184.628 12.6107 187.232 14.016C189.836 15.4213 191.861 17.426 193.308 20.03C194.796 22.634 195.54 25.672 195.54 29.144ZM184.69 26.354C184.69 24.5353 184.07 23.0887 182.83 22.014C181.59 20.9393 180.04 20.402 178.18 20.402C176.403 20.402 174.894 20.9187 173.654 21.952C172.455 22.9853 171.711 24.4527 171.422 26.354H184.69Z" fill="#131313"/>
<path d="M216.881 47.434C213.698 47.434 210.846 46.9173 208.325 45.884C205.804 44.8507 203.778 43.3213 202.249 41.296C200.761 39.2707 199.976 36.832 199.893 33.98H211.177C211.342 35.592 211.9 36.832 212.851 37.7C213.802 38.5267 215.042 38.94 216.571 38.94C218.142 38.94 219.382 38.5887 220.291 37.886C221.2 37.142 221.655 36.1293 221.655 34.848C221.655 33.7733 221.283 32.8847 220.539 32.182C219.836 31.4793 218.948 30.9007 217.873 30.446C216.84 29.9913 215.352 29.4747 213.409 28.896C210.598 28.028 208.304 27.16 206.527 26.292C204.75 25.424 203.22 24.1427 201.939 22.448C200.658 20.7533 200.017 18.542 200.017 15.814C200.017 11.7633 201.484 8.60133 204.419 6.328C207.354 4.01333 211.177 2.856 215.889 2.856C220.684 2.856 224.548 4.01333 227.483 6.328C230.418 8.60133 231.988 11.784 232.195 15.876H220.725C220.642 14.4707 220.126 13.3753 219.175 12.59C218.224 11.7633 217.005 11.35 215.517 11.35C214.236 11.35 213.202 11.7013 212.417 12.404C211.632 13.0653 211.239 14.0367 211.239 15.318C211.239 16.7233 211.9 17.8187 213.223 18.604C214.546 19.3893 216.612 20.2367 219.423 21.146C222.234 22.0967 224.507 23.006 226.243 23.874C228.02 24.742 229.55 26.0027 230.831 27.656C232.112 29.3093 232.753 31.438 232.753 34.042C232.753 36.522 232.112 38.7747 230.831 40.8C229.591 42.8253 227.772 44.4373 225.375 45.636C222.978 46.8347 220.146 47.434 216.881 47.434ZM237.17 29.64C237.17 26.0853 237.831 22.9647 239.154 20.278C240.518 17.5913 242.357 15.5247 244.672 14.078C246.986 12.6313 249.57 11.908 252.422 11.908C254.86 11.908 256.989 12.404 258.808 13.396C260.668 14.388 262.094 15.69 263.086 17.302V12.404H273.688V47H263.086V42.102C262.052 43.714 260.606 45.016 258.746 46.008C256.927 47 254.798 47.496 252.36 47.496C249.549 47.496 246.986 46.7727 244.672 45.326C242.357 43.838 240.518 41.7507 239.154 39.064C237.831 36.336 237.17 33.1947 237.17 29.64ZM263.086 29.702C263.086 27.0567 262.342 24.9693 260.854 23.44C259.407 21.9107 257.63 21.146 255.522 21.146C253.414 21.146 251.616 21.9107 250.128 23.44C248.681 24.928 247.958 26.9947 247.958 29.64C247.958 32.2853 248.681 34.3933 250.128 35.964C251.616 37.4933 253.414 38.258 255.522 38.258C257.63 38.258 259.407 37.4933 260.854 35.964C262.342 34.4347 263.086 32.3473 263.086 29.702ZM244.3 9.49C245.292 3.37267 248.144 0.313999 252.856 0.313999C253.765 0.313999 254.55 0.458665 255.212 0.747997C255.914 0.995999 256.762 1.38867 257.754 1.926C258.498 2.33933 259.097 2.64933 259.552 2.856C260.006 3.02133 260.482 3.104 260.978 3.104C262.507 3.104 263.396 2.174 263.644 0.313999H269.1C268.108 6.43133 265.256 9.49 260.544 9.49C259.634 9.49 258.828 9.366 258.126 9.118C257.464 8.82867 256.638 8.41533 255.646 7.878C254.902 7.46466 254.302 7.17533 253.848 7.01C253.393 6.80333 252.918 6.7 252.422 6.7C250.892 6.7 249.983 7.63 249.694 9.49H244.3Z" fill="#7317E9"/>
</svg>
